<?xml version="1.0" encoding="iso-8859-1"?>
<!-- Generator: Adobe Illustrator 19.0.0, SVG Export Plug-In . SVG Version: 6.00 Build 0)  -->
<svg version="1.1" id="Capa_1" xmlns="http://www.w3.org/2000/svg" xmlns:xlink="http://www.w3.org/1999/xlink" x="0px" y="0px"
	 viewBox="0 0 508.124 508.124" style="enable-background:new 0 0 508.124 508.124;" xml:space="preserve">
<g>
	<g>
		<path d="M370.312,137.35c-1.7-5.1-6.1-8.8-11.4-9.6l-63.7-9.3l-28.5-57.7c-2.4-4.8-7.3-7.9-12.7-7.9c-5.4,0-10.3,3.1-12.7,7.9
			l-28.5,57.7l-63.7,9.3c-5.3,0.8-9.7,4.5-11.4,9.6c-1.7,5.1-0.3,10.7,3.6,14.5l46.1,44.9l-10.9,63.5c-0.9,5.3,1.3,10.6,5.6,13.8
			c4.4,3.2,10.1,3.6,14.9,1.1l57-30l57,30c2.2,1.1,9.3,2.9,14.9-1.1c4.4-3.1,6.5-8.5,5.6-13.8l-10.9-63.5l46.1-44.9
			C370.512,148.15,371.912,142.45,370.312,137.35z M295.812,181.75c-3.3,3.2-4.8,7.9-4.1,12.5l7.3,42.6l-38.3-20.1
			c-6.6-2.2-6.6-2.2-13.1,0l-38.2,20.1l7.3-42.6c0.8-4.6-0.7-9.2-4.1-12.5l-30.9-30.2l42.8-6.2c4.6-0.7,8.6-3.6,10.6-7.7l19.1-38.7
			l19.1,38.7c2.1,4.2,6,7.1,10.6,7.7l42.8,6.2L295.812,181.75z"/>
	</g>
</g>
<g>
	<g>
		<path d="M507.412,315.85c-1.7-5.1-6.1-8.8-11.4-9.6l-63.7-9.3l-28.5-57.7c-2.4-4.8-7.3-7.9-12.7-7.9s-10.3,3.1-12.7,7.9
			l-28.5,57.7l-63.7,9.3c-5.3,0.8-9.7,4.5-11.4,9.6c-1.7,5.1-0.3,10.7,3.6,14.5l46.1,44.9l-10.9,63.5c-0.9,5.3,1.3,10.6,5.6,13.8
			c4.4,3.2,10.1,3.6,14.9,1.1l57-30l57,30c2.1,1.1,9.2,2.9,14.9-1.1c4.4-3.1,6.5-8.5,5.6-13.8l-10.9-63.5l46.1-44.9
			C507.712,326.55,509.112,320.95,507.412,315.85z M432.712,360.15c-3.3,3.2-4.8,7.9-4.1,12.5l7.3,42.6l-38.2-20.1
			c-6.6-2.2-6.6-2.2-13.1,0l-38.2,20.1l7.3-42.6c0.8-4.6-0.7-9.2-4.1-12.5l-30.9-30.1l42.8-6.2c4.6-0.7,8.6-3.6,10.6-7.7l19.1-38.7
			l19.1,38.7c2.1,4.2,6,7.1,10.6,7.7l42.8,6.2L432.712,360.15z"/>
	</g>
</g>
<g>
	<g>
		<path d="M233.312,315.85c-1.7-5.1-6.1-8.9-11.4-9.6l-63.7-9.3l-28.5-57.7c-2.4-4.8-7.3-7.9-12.7-7.9c-5.4,0-10.3,3.1-12.7,7.9
			l-28.5,57.7l-63.7,9.3c-5.3,0.8-9.7,4.5-11.4,9.6c-1.7,5.1-0.3,10.7,3.6,14.5l46.1,44.9l-10.9,63.5c-0.9,5.3,1.3,10.6,5.6,13.8
			c4.4,3.2,10.1,3.6,14.9,1.1l57-30l57,30c2.1,1.1,9.2,2.9,14.9-1.1c4.4-3.1,6.5-8.5,5.6-13.8l-10.9-63.5l46.1-44.9
			C233.512,326.65,234.912,320.95,233.312,315.85z M158.612,360.15c-3.3,3.2-4.8,7.9-4.1,12.5l7.3,42.6l-38.2-20.1
			c-6.6-2.2-6.6-2.2-13.1,0l-38.2,20.1l7.3-42.6c0.8-4.6-0.7-9.2-4.1-12.5l-31-30.1l42.8-6.2c4.6-0.7,8.6-3.6,10.6-7.7l19.1-38.7
			l19.1,38.7c2.1,4.2,6,7.1,10.6,7.7l42.8,6.2L158.612,360.15z"/>
	</g>
</g>
<g>
</g>
<g>
</g>
<g>
</g>
<g>
</g>
<g>
</g>
<g>
</g>
<g>
</g>
<g>
</g>
<g>
</g>
<g>
</g>
<g>
</g>
<g>
</g>
<g>
</g>
<g>
</g>
<g>
</g>
</svg>
